<mxfile host="app.diagrams.net" modified="2023-04-05T03:47:58.351Z" agent="Mozilla/5.0 (Macintosh; Intel Mac OS X 10_15_7) AppleWebKit/537.36 (KHTML, like Gecko) Chrome/111.0.0.0 Safari/537.36" etag="erG6ZyUy-FnSgd-ekKl6" version="21.1.4" type="github">
  <diagram name="Page-1" id="zVySkJmeFfrjwzjDZRzQ">
    <mxGraphModel dx="990" dy="550" grid="1" gridSize="10" guides="1" tooltips="1" connect="1" arrows="1" fold="1" page="1" pageScale="1" pageWidth="827" pageHeight="1169" math="0" shadow="0">
      <root>
        <mxCell id="0" />
        <mxCell id="1" parent="0" />
        <mxCell id="8E-fO5AMGFQg5QN7vPIN-1" value="Progress of ECPS Dashboard" style="swimlane;html=1;childLayout=stackLayout;resizeParent=1;resizeParentMax=0;horizontal=0;startSize=20;horizontalStack=0;whiteSpace=wrap;" parent="1" vertex="1">
          <mxGeometry x="130" y="90" width="1470" height="360" as="geometry" />
        </mxCell>
        <mxCell id="8E-fO5AMGFQg5QN7vPIN-2" value="&lt;font style=&quot;font-size: 11px;&quot;&gt;Program Quality&lt;br&gt;&amp;nbsp;Assurance Officer&lt;span style=&quot;margin: 0px; padding: 0px; user-select: text; -webkit-user-drag: none; text-align: left; text-size-adjust: auto; line-height: 16.1875px;&quot; data-ccp-props=&quot;{&amp;quot;201341983&amp;quot;:0,&amp;quot;335559740&amp;quot;:259}&quot; class=&quot;EOP SCXW140022326 BCX4&quot;&gt;&amp;nbsp;&lt;/span&gt;&lt;/font&gt;" style="swimlane;html=1;startSize=30;horizontal=0;" parent="8E-fO5AMGFQg5QN7vPIN-1" vertex="1">
          <mxGeometry x="20" width="1450" height="120" as="geometry" />
        </mxCell>
        <mxCell id="8E-fO5AMGFQg5QN7vPIN-10" style="edgeStyle=orthogonalEdgeStyle;rounded=0;orthogonalLoop=1;jettySize=auto;html=1;exitX=1;exitY=0.5;exitDx=0;exitDy=0;exitPerimeter=0;entryX=0;entryY=0.5;entryDx=0;entryDy=0;entryPerimeter=0;" parent="8E-fO5AMGFQg5QN7vPIN-2" source="8E-fO5AMGFQg5QN7vPIN-5" target="8E-fO5AMGFQg5QN7vPIN-9" edge="1">
          <mxGeometry relative="1" as="geometry" />
        </mxCell>
        <mxCell id="8E-fO5AMGFQg5QN7vPIN-5" value="" style="points=[[0.145,0.145,0],[0.5,0,0],[0.855,0.145,0],[1,0.5,0],[0.855,0.855,0],[0.5,1,0],[0.145,0.855,0],[0,0.5,0]];shape=mxgraph.bpmn.event;html=1;verticalLabelPosition=bottom;labelBackgroundColor=#ffffff;verticalAlign=top;align=center;perimeter=ellipsePerimeter;outlineConnect=0;aspect=fixed;outline=standard;symbol=general;" parent="8E-fO5AMGFQg5QN7vPIN-2" vertex="1">
          <mxGeometry x="40" y="53.75" width="12.5" height="12.5" as="geometry" />
        </mxCell>
        <mxCell id="8E-fO5AMGFQg5QN7vPIN-9" value="&lt;font style=&quot;font-size: 10px;&quot;&gt;1. Open Staff Portal&lt;/font&gt;" style="points=[[0.25,0,0],[0.5,0,0],[0.75,0,0],[1,0.25,0],[1,0.5,0],[1,0.75,0],[0.75,1,0],[0.5,1,0],[0.25,1,0],[0,0.75,0],[0,0.5,0],[0,0.25,0]];shape=mxgraph.bpmn.task;whiteSpace=wrap;rectStyle=rounded;size=10;html=1;container=1;expand=0;collapsible=0;taskMarker=abstract;" parent="8E-fO5AMGFQg5QN7vPIN-2" vertex="1">
          <mxGeometry x="90" y="35" width="60" height="50" as="geometry" />
        </mxCell>
        <mxCell id="8E-fO5AMGFQg5QN7vPIN-17" style="edgeStyle=orthogonalEdgeStyle;rounded=0;orthogonalLoop=1;jettySize=auto;html=1;exitX=1;exitY=0.5;exitDx=0;exitDy=0;exitPerimeter=0;" parent="8E-fO5AMGFQg5QN7vPIN-2" source="8E-fO5AMGFQg5QN7vPIN-11" edge="1">
          <mxGeometry relative="1" as="geometry">
            <mxPoint x="270" y="60" as="targetPoint" />
          </mxGeometry>
        </mxCell>
        <mxCell id="8E-fO5AMGFQg5QN7vPIN-11" value="&lt;font style=&quot;font-size: 10px;&quot;&gt;2. Open Learning &amp;amp; Teaching&lt;/font&gt;" style="points=[[0.25,0,0],[0.5,0,0],[0.75,0,0],[1,0.25,0],[1,0.5,0],[1,0.75,0],[0.75,1,0],[0.5,1,0],[0.25,1,0],[0,0.75,0],[0,0.5,0],[0,0.25,0]];shape=mxgraph.bpmn.task;whiteSpace=wrap;rectStyle=rounded;size=10;html=1;container=1;expand=0;collapsible=0;taskMarker=abstract;" parent="8E-fO5AMGFQg5QN7vPIN-2" vertex="1">
          <mxGeometry x="180" y="36.25" width="60" height="47.5" as="geometry" />
        </mxCell>
        <mxCell id="8E-fO5AMGFQg5QN7vPIN-19" style="edgeStyle=orthogonalEdgeStyle;rounded=0;orthogonalLoop=1;jettySize=auto;html=1;exitX=1;exitY=0.5;exitDx=0;exitDy=0;exitPerimeter=0;" parent="8E-fO5AMGFQg5QN7vPIN-2" edge="1">
          <mxGeometry relative="1" as="geometry">
            <mxPoint x="180" y="60.75" as="targetPoint" />
            <mxPoint x="150" y="60.75" as="sourcePoint" />
          </mxGeometry>
        </mxCell>
        <mxCell id="8E-fO5AMGFQg5QN7vPIN-20" value="&lt;font style=&quot;font-size: 10px;&quot;&gt;3. Open Learning &amp;amp; Teaching&lt;/font&gt;" style="points=[[0.25,0,0],[0.5,0,0],[0.75,0,0],[1,0.25,0],[1,0.5,0],[1,0.75,0],[0.75,1,0],[0.5,1,0],[0.25,1,0],[0,0.75,0],[0,0.5,0],[0,0.25,0]];shape=mxgraph.bpmn.task;whiteSpace=wrap;rectStyle=rounded;size=10;html=1;container=1;expand=0;collapsible=0;taskMarker=abstract;" parent="8E-fO5AMGFQg5QN7vPIN-2" vertex="1">
          <mxGeometry x="270" y="35" width="60" height="47.5" as="geometry" />
        </mxCell>
        <mxCell id="8E-fO5AMGFQg5QN7vPIN-21" style="edgeStyle=orthogonalEdgeStyle;rounded=0;orthogonalLoop=1;jettySize=auto;html=1;exitX=1;exitY=0.5;exitDx=0;exitDy=0;exitPerimeter=0;" parent="8E-fO5AMGFQg5QN7vPIN-2" edge="1">
          <mxGeometry relative="1" as="geometry">
            <mxPoint x="360" y="59.5" as="targetPoint" />
            <mxPoint x="330" y="59.5" as="sourcePoint" />
          </mxGeometry>
        </mxCell>
        <mxCell id="8E-fO5AMGFQg5QN7vPIN-22" value="&lt;span style=&quot;font-size: 10px;&quot;&gt;4. Open &#39;University&#39; tab&lt;/span&gt;" style="points=[[0.25,0,0],[0.5,0,0],[0.75,0,0],[1,0.25,0],[1,0.5,0],[1,0.75,0],[0.75,1,0],[0.5,1,0],[0.25,1,0],[0,0.75,0],[0,0.5,0],[0,0.25,0]];shape=mxgraph.bpmn.task;whiteSpace=wrap;rectStyle=rounded;size=10;html=1;container=1;expand=0;collapsible=0;taskMarker=abstract;" parent="8E-fO5AMGFQg5QN7vPIN-2" vertex="1">
          <mxGeometry x="360" y="36.25" width="60" height="47.5" as="geometry" />
        </mxCell>
        <mxCell id="8E-fO5AMGFQg5QN7vPIN-24" style="edgeStyle=orthogonalEdgeStyle;rounded=0;orthogonalLoop=1;jettySize=auto;html=1;exitX=1;exitY=0.5;exitDx=0;exitDy=0;exitPerimeter=0;" parent="8E-fO5AMGFQg5QN7vPIN-2" edge="1">
          <mxGeometry relative="1" as="geometry">
            <mxPoint x="450" y="59.33000000000001" as="targetPoint" />
            <mxPoint x="420" y="59.33000000000001" as="sourcePoint" />
          </mxGeometry>
        </mxCell>
        <mxCell id="8E-fO5AMGFQg5QN7vPIN-25" value="&lt;span style=&quot;font-size: 10px;&quot;&gt;5. Open &#39;Profile State Matrix&#39;&#39;&amp;nbsp;&lt;/span&gt;" style="points=[[0.25,0,0],[0.5,0,0],[0.75,0,0],[1,0.25,0],[1,0.5,0],[1,0.75,0],[0.75,1,0],[0.5,1,0],[0.25,1,0],[0,0.75,0],[0,0.5,0],[0,0.25,0]];shape=mxgraph.bpmn.task;whiteSpace=wrap;rectStyle=rounded;size=10;html=1;container=1;expand=0;collapsible=0;taskMarker=abstract;" parent="8E-fO5AMGFQg5QN7vPIN-2" vertex="1">
          <mxGeometry x="450" y="35" width="60" height="47.5" as="geometry" />
        </mxCell>
        <mxCell id="8E-fO5AMGFQg5QN7vPIN-26" style="edgeStyle=orthogonalEdgeStyle;rounded=0;orthogonalLoop=1;jettySize=auto;html=1;exitX=1;exitY=0.5;exitDx=0;exitDy=0;exitPerimeter=0;" parent="8E-fO5AMGFQg5QN7vPIN-2" edge="1">
          <mxGeometry relative="1" as="geometry">
            <mxPoint x="540" y="59.33000000000001" as="targetPoint" />
            <mxPoint x="510" y="59.33000000000001" as="sourcePoint" />
          </mxGeometry>
        </mxCell>
        <mxCell id="8E-fO5AMGFQg5QN7vPIN-27" value="&lt;span style=&quot;font-size: 10px;&quot;&gt;6. Select applicable trimester&amp;nbsp;&lt;/span&gt;" style="points=[[0.25,0,0],[0.5,0,0],[0.75,0,0],[1,0.25,0],[1,0.5,0],[1,0.75,0],[0.75,1,0],[0.5,1,0],[0.25,1,0],[0,0.75,0],[0,0.5,0],[0,0.25,0]];shape=mxgraph.bpmn.task;whiteSpace=wrap;rectStyle=rounded;size=10;html=1;container=1;expand=0;collapsible=0;taskMarker=abstract;" parent="8E-fO5AMGFQg5QN7vPIN-2" vertex="1">
          <mxGeometry x="540" y="37.5" width="60" height="47.5" as="geometry" />
        </mxCell>
        <mxCell id="8E-fO5AMGFQg5QN7vPIN-28" style="edgeStyle=orthogonalEdgeStyle;rounded=0;orthogonalLoop=1;jettySize=auto;html=1;exitX=1;exitY=0.5;exitDx=0;exitDy=0;exitPerimeter=0;" parent="8E-fO5AMGFQg5QN7vPIN-2" edge="1">
          <mxGeometry relative="1" as="geometry">
            <mxPoint x="630" y="60.58000000000001" as="targetPoint" />
            <mxPoint x="600" y="60.58000000000001" as="sourcePoint" />
          </mxGeometry>
        </mxCell>
        <mxCell id="8E-fO5AMGFQg5QN7vPIN-44" value="&lt;span style=&quot;font-size: 10px;&quot;&gt;7. Click &#39;Select&#39;&lt;/span&gt;" style="points=[[0.25,0,0],[0.5,0,0],[0.75,0,0],[1,0.25,0],[1,0.5,0],[1,0.75,0],[0.75,1,0],[0.5,1,0],[0.25,1,0],[0,0.75,0],[0,0.5,0],[0,0.25,0]];shape=mxgraph.bpmn.task;whiteSpace=wrap;rectStyle=rounded;size=10;html=1;container=1;expand=0;collapsible=0;taskMarker=abstract;" parent="8E-fO5AMGFQg5QN7vPIN-2" vertex="1">
          <mxGeometry x="630" y="36.25" width="60" height="47.5" as="geometry" />
        </mxCell>
        <mxCell id="8E-fO5AMGFQg5QN7vPIN-45" style="edgeStyle=orthogonalEdgeStyle;rounded=0;orthogonalLoop=1;jettySize=auto;html=1;exitX=1;exitY=0.5;exitDx=0;exitDy=0;exitPerimeter=0;" parent="8E-fO5AMGFQg5QN7vPIN-2" edge="1">
          <mxGeometry relative="1" as="geometry">
            <mxPoint x="720" y="60.58000000000001" as="targetPoint" />
            <mxPoint x="690" y="60.58000000000001" as="sourcePoint" />
          </mxGeometry>
        </mxCell>
        <mxCell id="8E-fO5AMGFQg5QN7vPIN-46" value="&lt;span style=&quot;font-size: 10px;&quot;&gt;8. Click &#39;View this report in Excel&#39;&lt;/span&gt;" style="points=[[0.25,0,0],[0.5,0,0],[0.75,0,0],[1,0.25,0],[1,0.5,0],[1,0.75,0],[0.75,1,0],[0.5,1,0],[0.25,1,0],[0,0.75,0],[0,0.5,0],[0,0.25,0]];shape=mxgraph.bpmn.task;whiteSpace=wrap;rectStyle=rounded;size=10;html=1;container=1;expand=0;collapsible=0;taskMarker=abstract;" parent="8E-fO5AMGFQg5QN7vPIN-2" vertex="1">
          <mxGeometry x="720" y="37.5" width="70" height="47.5" as="geometry" />
        </mxCell>
        <mxCell id="8E-fO5AMGFQg5QN7vPIN-47" style="edgeStyle=orthogonalEdgeStyle;rounded=0;orthogonalLoop=1;jettySize=auto;html=1;exitX=1;exitY=0.5;exitDx=0;exitDy=0;exitPerimeter=0;" parent="8E-fO5AMGFQg5QN7vPIN-2" edge="1">
          <mxGeometry relative="1" as="geometry">
            <mxPoint x="820" y="60.58000000000001" as="targetPoint" />
            <mxPoint x="790" y="60.58000000000001" as="sourcePoint" />
          </mxGeometry>
        </mxCell>
        <mxCell id="8E-fO5AMGFQg5QN7vPIN-49" value="&lt;span style=&quot;font-size: 10px;&quot;&gt;9. Remove the integer in file name and download&amp;nbsp;&lt;/span&gt;" style="points=[[0.25,0,0],[0.5,0,0],[0.75,0,0],[1,0.25,0],[1,0.5,0],[1,0.75,0],[0.75,1,0],[0.5,1,0],[0.25,1,0],[0,0.75,0],[0,0.5,0],[0,0.25,0]];shape=mxgraph.bpmn.task;whiteSpace=wrap;rectStyle=rounded;size=10;html=1;container=1;expand=0;collapsible=0;taskMarker=abstract;" parent="8E-fO5AMGFQg5QN7vPIN-2" vertex="1">
          <mxGeometry x="820" y="30" width="70" height="62.5" as="geometry" />
        </mxCell>
        <mxCell id="8E-fO5AMGFQg5QN7vPIN-50" style="edgeStyle=orthogonalEdgeStyle;rounded=0;orthogonalLoop=1;jettySize=auto;html=1;exitX=1;exitY=0.5;exitDx=0;exitDy=0;exitPerimeter=0;" parent="8E-fO5AMGFQg5QN7vPIN-2" edge="1">
          <mxGeometry relative="1" as="geometry">
            <mxPoint x="920" y="60.58000000000001" as="targetPoint" />
            <mxPoint x="890" y="60.58000000000001" as="sourcePoint" />
          </mxGeometry>
        </mxCell>
        <mxCell id="8E-fO5AMGFQg5QN7vPIN-51" value="&lt;span style=&quot;font-size: 10px;&quot;&gt;10. Click &#39;Yes&#39; to replace existing&amp;nbsp;file&lt;/span&gt;" style="points=[[0.25,0,0],[0.5,0,0],[0.75,0,0],[1,0.25,0],[1,0.5,0],[1,0.75,0],[0.75,1,0],[0.5,1,0],[0.25,1,0],[0,0.75,0],[0,0.5,0],[0,0.25,0]];shape=mxgraph.bpmn.task;whiteSpace=wrap;rectStyle=rounded;size=10;html=1;container=1;expand=0;collapsible=0;taskMarker=abstract;" parent="8E-fO5AMGFQg5QN7vPIN-2" vertex="1">
          <mxGeometry x="920" y="37.5" width="70" height="52.5" as="geometry" />
        </mxCell>
        <mxCell id="8E-fO5AMGFQg5QN7vPIN-52" style="edgeStyle=orthogonalEdgeStyle;rounded=0;orthogonalLoop=1;jettySize=auto;html=1;exitX=1;exitY=0.5;exitDx=0;exitDy=0;exitPerimeter=0;" parent="8E-fO5AMGFQg5QN7vPIN-2" edge="1">
          <mxGeometry relative="1" as="geometry">
            <mxPoint x="1020" y="63.08000000000001" as="targetPoint" />
            <mxPoint x="990" y="63.08000000000001" as="sourcePoint" />
          </mxGeometry>
        </mxCell>
        <mxCell id="8E-fO5AMGFQg5QN7vPIN-53" value="&lt;span style=&quot;font-size: 10px;&quot;&gt;11. Delete row &#39;GIC&#39; and save file&lt;/span&gt;" style="points=[[0.25,0,0],[0.5,0,0],[0.75,0,0],[1,0.25,0],[1,0.5,0],[1,0.75,0],[0.75,1,0],[0.5,1,0],[0.25,1,0],[0,0.75,0],[0,0.5,0],[0,0.25,0]];shape=mxgraph.bpmn.task;whiteSpace=wrap;rectStyle=rounded;size=10;html=1;container=1;expand=0;collapsible=0;taskMarker=abstract;" parent="8E-fO5AMGFQg5QN7vPIN-2" vertex="1">
          <mxGeometry x="1020.5" y="36.25" width="70" height="52.5" as="geometry" />
        </mxCell>
        <mxCell id="8E-fO5AMGFQg5QN7vPIN-54" style="edgeStyle=orthogonalEdgeStyle;rounded=0;orthogonalLoop=1;jettySize=auto;html=1;exitX=1;exitY=0.5;exitDx=0;exitDy=0;exitPerimeter=0;" parent="8E-fO5AMGFQg5QN7vPIN-2" edge="1">
          <mxGeometry relative="1" as="geometry">
            <mxPoint x="1121" y="62.98000000000002" as="targetPoint" />
            <mxPoint x="1091" y="62.98000000000002" as="sourcePoint" />
          </mxGeometry>
        </mxCell>
        <mxCell id="8E-fO5AMGFQg5QN7vPIN-55" value="&lt;span style=&quot;font-size: 10px;&quot;&gt;12. Open ECPS_Reports folder&lt;/span&gt;" style="points=[[0.25,0,0],[0.5,0,0],[0.75,0,0],[1,0.25,0],[1,0.5,0],[1,0.75,0],[0.75,1,0],[0.5,1,0],[0.25,1,0],[0,0.75,0],[0,0.5,0],[0,0.25,0]];shape=mxgraph.bpmn.task;whiteSpace=wrap;rectStyle=rounded;size=10;html=1;container=1;expand=0;collapsible=0;taskMarker=abstract;" parent="8E-fO5AMGFQg5QN7vPIN-2" vertex="1">
          <mxGeometry x="1120" y="36.25" width="70" height="52.5" as="geometry" />
        </mxCell>
        <mxCell id="8E-fO5AMGFQg5QN7vPIN-56" value="&lt;font style=&quot;font-size: 10px;&quot;&gt;13. Click &#39;Upload&#39; and select&amp;nbsp;&lt;br&gt;ECPSProfileStateMatrix.csv file. Replace old file&lt;/font&gt;" style="points=[[0.25,0,0],[0.5,0,0],[0.75,0,0],[1,0.25,0],[1,0.5,0],[1,0.75,0],[0.75,1,0],[0.5,1,0],[0.25,1,0],[0,0.75,0],[0,0.5,0],[0,0.25,0]];shape=mxgraph.bpmn.task;whiteSpace=wrap;rectStyle=rounded;size=10;html=1;container=1;expand=0;collapsible=0;taskMarker=abstract;" parent="8E-fO5AMGFQg5QN7vPIN-2" vertex="1">
          <mxGeometry x="1220" y="30" width="140" height="70" as="geometry" />
        </mxCell>
        <mxCell id="8E-fO5AMGFQg5QN7vPIN-57" style="edgeStyle=orthogonalEdgeStyle;rounded=0;orthogonalLoop=1;jettySize=auto;html=1;exitX=1;exitY=0.5;exitDx=0;exitDy=0;exitPerimeter=0;" parent="8E-fO5AMGFQg5QN7vPIN-2" edge="1">
          <mxGeometry relative="1" as="geometry">
            <mxPoint x="1220" y="66.25000000000003" as="targetPoint" />
            <mxPoint x="1190" y="66.25000000000003" as="sourcePoint" />
          </mxGeometry>
        </mxCell>
        <mxCell id="8E-fO5AMGFQg5QN7vPIN-3" value="&lt;font style=&quot;font-size: 11px;&quot;&gt;PowerBi&lt;/font&gt;" style="swimlane;html=1;startSize=30;horizontal=0;" parent="8E-fO5AMGFQg5QN7vPIN-1" vertex="1">
          <mxGeometry x="20" y="120" width="1450" height="120" as="geometry" />
        </mxCell>
        <mxCell id="8E-fO5AMGFQg5QN7vPIN-58" value="&lt;span style=&quot;font-size: 10px;&quot;&gt;14. Update PowerBi Dashboard&lt;/span&gt;" style="points=[[0.25,0,0],[0.5,0,0],[0.75,0,0],[1,0.25,0],[1,0.5,0],[1,0.75,0],[0.75,1,0],[0.5,1,0],[0.25,1,0],[0,0.75,0],[0,0.5,0],[0,0.25,0]];shape=mxgraph.bpmn.task;whiteSpace=wrap;rectStyle=rounded;size=10;html=1;container=1;expand=0;collapsible=0;taskMarker=abstract;" parent="8E-fO5AMGFQg5QN7vPIN-3" vertex="1">
          <mxGeometry x="1220" y="25" width="140" height="70" as="geometry" />
        </mxCell>
        <mxCell id="8E-fO5AMGFQg5QN7vPIN-4" value="&lt;font style=&quot;font-size: 11px;&quot;&gt;Deans of School&lt;/font&gt;" style="swimlane;html=1;startSize=30;horizontal=0;" parent="8E-fO5AMGFQg5QN7vPIN-1" vertex="1">
          <mxGeometry x="20" y="240" width="1450" height="120" as="geometry" />
        </mxCell>
        <mxCell id="8E-fO5AMGFQg5QN7vPIN-8" value="" style="points=[[0.145,0.145,0],[0.5,0,0],[0.855,0.145,0],[1,0.5,0],[0.855,0.855,0],[0.5,1,0],[0.145,0.855,0],[0,0.5,0]];shape=mxgraph.bpmn.event;html=1;verticalLabelPosition=bottom;labelBackgroundColor=#ffffff;verticalAlign=top;align=center;perimeter=ellipsePerimeter;outlineConnect=0;aspect=fixed;outline=end;symbol=terminate2;" parent="8E-fO5AMGFQg5QN7vPIN-4" vertex="1">
          <mxGeometry x="1420" y="53.129999999999995" width="13.75" height="13.75" as="geometry" />
        </mxCell>
        <mxCell id="8E-fO5AMGFQg5QN7vPIN-63" style="edgeStyle=orthogonalEdgeStyle;rounded=0;orthogonalLoop=1;jettySize=auto;html=1;exitX=1;exitY=0.5;exitDx=0;exitDy=0;exitPerimeter=0;entryX=0;entryY=0.5;entryDx=0;entryDy=0;entryPerimeter=0;" parent="8E-fO5AMGFQg5QN7vPIN-4" source="8E-fO5AMGFQg5QN7vPIN-61" target="8E-fO5AMGFQg5QN7vPIN-8" edge="1">
          <mxGeometry relative="1" as="geometry" />
        </mxCell>
        <mxCell id="8E-fO5AMGFQg5QN7vPIN-61" value="&lt;span style=&quot;font-size: 10px;&quot;&gt;15. View PowerBi Report&lt;/span&gt;" style="points=[[0.25,0,0],[0.5,0,0],[0.75,0,0],[1,0.25,0],[1,0.5,0],[1,0.75,0],[0.75,1,0],[0.5,1,0],[0.25,1,0],[0,0.75,0],[0,0.5,0],[0,0.25,0]];shape=mxgraph.bpmn.task;whiteSpace=wrap;rectStyle=rounded;size=10;html=1;container=1;expand=0;collapsible=0;taskMarker=abstract;" parent="8E-fO5AMGFQg5QN7vPIN-4" vertex="1">
          <mxGeometry x="1220" y="25" width="140" height="70" as="geometry" />
        </mxCell>
        <mxCell id="8E-fO5AMGFQg5QN7vPIN-60" style="edgeStyle=orthogonalEdgeStyle;rounded=0;orthogonalLoop=1;jettySize=auto;html=1;exitX=0.5;exitY=1;exitDx=0;exitDy=0;exitPerimeter=0;entryX=0.5;entryY=0;entryDx=0;entryDy=0;entryPerimeter=0;" parent="8E-fO5AMGFQg5QN7vPIN-1" source="8E-fO5AMGFQg5QN7vPIN-56" target="8E-fO5AMGFQg5QN7vPIN-58" edge="1">
          <mxGeometry relative="1" as="geometry" />
        </mxCell>
        <mxCell id="8E-fO5AMGFQg5QN7vPIN-62" style="edgeStyle=orthogonalEdgeStyle;rounded=0;orthogonalLoop=1;jettySize=auto;html=1;exitX=0.5;exitY=1;exitDx=0;exitDy=0;exitPerimeter=0;entryX=0.5;entryY=0;entryDx=0;entryDy=0;entryPerimeter=0;" parent="8E-fO5AMGFQg5QN7vPIN-1" source="8E-fO5AMGFQg5QN7vPIN-58" target="8E-fO5AMGFQg5QN7vPIN-61" edge="1">
          <mxGeometry relative="1" as="geometry" />
        </mxCell>
      </root>
    </mxGraphModel>
  </diagram>
</mxfile>
